# xmcd
#
# Track frame offsets:
#	183
#	12328
#	29733
#	47023
#	59720
#	80645
#	92003
#	106455
#	125030
#	137968
#	148928
#	161300
#	172860
#	186783
#	199230
#	210480
#	221320
#	232993
#	244425
#	257225
#
# Disc length: 3552 seconds
#
# Revision: 0
# Processed by: cddbd v1.4PL0 Copyright (c) Steve Scherf et al.
# Submitted via: EasyCDDAExtractor 4.6.0.1
#
DISCID=2d0dde14
DTITLE=Various artist - Rhytm'n Blues
DYEAR=1900
DGENRE=R'n B
TTITLE0=Soul man
TTITLE1=Want ads
TTITLE2=Best thing that ever happened to
TTITLE3=Games people play
TTITLE4=Theme from Shaft
TTITLE5=Respect
TTITLE6=Knock on wood
TTITLE7=I can understand it
TTITLE8=Who's making love
TTITLE9=Sweet soul music
TTITLE10=Give me just a little more time
TTITLE11=Walking the dog
TTITLE12=On broadway
TTITLE13=Poison ivy
TTITLE14=Mercy mercy
TTITLE15=Soul limbo
TTITLE16=Slip away
TTITLE17=Kansas city
TTITLE18=Working in the coal mine
TTITLE19=Iko iko
EXTD=
EXTT0=
EXTT1=
EXTT2=
EXTT3=
EXTT4=
EXTT5=
EXTT6=
EXTT7=
EXTT8=
EXTT9=
EXTT10=
EXTT11=
EXTT12=
EXTT13=
EXTT14=
EXTT15=
EXTT16=
EXTT17=
EXTT18=
EXTT19=
PLAYORDER=
